<svg xmlns="http://www.w3.org/2000/svg" viewBox="0 0 240 240" role="img" aria-label="Mochi celebrate">
  <defs>
    <radialGradient id="head" cx="50%" cy="28%" r="72%">
      <stop offset="0%" stop-color="#fff7f0"/>
      <stop offset="100%" stop-color="#ffd9bf"/>
    </radialGradient>
    <radialGradient id="eyeIris" cx="40%" cy="35%" r="70%">
      <stop offset="0%" stop-color="#8ec2ff"/>
      <stop offset="100%" stop-color="#496ea1"/>
    </radialGradient>
  </defs>

  <g transform="translate(0 4)">
    <path d="M74 80 L98 34 L121 78 Z" fill="#ffe5d3" stroke="#dbb39a" stroke-width="4" stroke-linejoin="round"/>
    <path d="M166 80 L142 34 L119 78 Z" fill="#ffe5d3" stroke="#dbb39a" stroke-width="4" stroke-linejoin="round"/>
    <circle cx="120" cy="124" r="62" fill="url(#head)" stroke="#ddb59d" stroke-width="4"/>
    <ellipse cx="120" cy="98" rx="37" ry="18" fill="#ffffff" opacity="0.22"/>

    <ellipse cx="95" cy="117" rx="11" ry="12" fill="#2d4465"/>
    <ellipse cx="145" cy="117" rx="11" ry="12" fill="#2d4465"/>
    <ellipse cx="95" cy="119" rx="7.5" ry="8.5" fill="url(#eyeIris)"/>
    <ellipse cx="145" cy="119" rx="7.5" ry="8.5" fill="url(#eyeIris)"/>
    <circle cx="92" cy="115" r="2.4" fill="#fff"/>
    <circle cx="142" cy="115" r="2.4" fill="#fff"/>

    <ellipse cx="120" cy="133" rx="7" ry="5" fill="#c9828d"/>
    <path d="M99 145 Q120 171 141 145" fill="none" stroke="#b85f74" stroke-width="5" stroke-linecap="round"/>
    <text x="66" y="86" font-size="18" fill="#ff99bd" font-family="Segoe UI Emoji">✦</text>
    <text x="162" y="82" font-size="18" fill="#80bfff" font-family="Segoe UI Emoji">✦</text>
  </g>
</svg>
